<?xml version="1.0" encoding="UTF-8" standalone="no"?>
<!DOCTYPE svg PUBLIC "-//W3C//DTD SVG 1.1//EN"
 "http://www.w3.org/Graphics/SVG/1.1/DTD/svg11.dtd">
<!-- Generated by graphviz version 2.46.0 (20210118.1747)
 -->
<!-- Title: G Pages: 1 -->
<svg width="182pt" height="405pt"
 viewBox="0.00 0.00 182.00 405.00" xmlns="http://www.w3.org/2000/svg" xmlns:xlink="http://www.w3.org/1999/xlink">
<g id="graph0" class="graph" transform="scale(1 1) rotate(0) translate(4 401)">
<title>G</title>
<polygon fill="white" stroke="transparent" points="-4,4 -4,-401 178,-401 178,4 -4,4"/>
<!-- base_meta_model -->
<g id="node1" class="node">
<title>base_meta_model</title>
<polygon fill="none" stroke="black" points="137.5,-397 30.5,-397 30.5,-361 143.5,-361 143.5,-391 137.5,-397"/>
<polyline fill="none" stroke="black" points="137.5,-397 137.5,-391 "/>
<polyline fill="none" stroke="black" points="143.5,-391 137.5,-391 "/>
<text text-anchor="middle" x="87" y="-375.3" font-family="Times New Roman,serif" font-size="14.00">Base meta&#45;model</text>
</g>
<!-- our_meta_model -->
<g id="node2" class="node">
<title>our_meta_model</title>
<polygon fill="none" stroke="black" points="160.5,-310 7.5,-310 7.5,-174 166.5,-174 166.5,-304 160.5,-310"/>
<polyline fill="none" stroke="black" points="160.5,-310 160.5,-304 "/>
<polyline fill="none" stroke="black" points="166.5,-304 160.5,-304 "/>
<text text-anchor="start" x="20" y="-290.8" font-family="Times New Roman,serif" font-size="14.00">Our meta&#45;model:</text>
<text text-anchor="start" x="20" y="-269.8" font-family="Times New Roman,serif" font-size="14.00">• Data structures</text>
<text text-anchor="start" x="20" y="-248.8" font-family="Times New Roman,serif" font-size="14.00">• Operations</text>
<text text-anchor="start" x="20" y="-227.8" font-family="Times New Roman,serif" font-size="14.00">• Contracts</text>
<text text-anchor="start" x="20" y="-206.8" font-family="Times New Roman,serif" font-size="14.00">• De/serialization scripts</text>
<text text-anchor="start" x="20" y="-185.8" font-family="Times New Roman,serif" font-size="14.00">• Unit test scripts</text>
</g>
<!-- base_meta_model&#45;&gt;our_meta_model -->
<g id="edge1" class="edge">
<title>base_meta_model&#45;&gt;our_meta_model</title>
<path fill="none" stroke="black" d="M87,-360.9C87,-350.19 87,-335.55 87,-320.23"/>
<polygon fill="black" stroke="black" points="90.5,-320.09 87,-310.09 83.5,-320.09 90.5,-320.09"/>
<text text-anchor="middle" x="115.5" y="-331.8" font-family="Times New Roman,serif" font-size="14.00"> &#160;manually</text>
</g>
<!-- stubs -->
<g id="node3" class="node">
<title>stubs</title>
<polygon fill="none" stroke="black" points="141,-123 27,-123 27,-87 147,-87 147,-117 141,-123"/>
<polyline fill="none" stroke="black" points="141,-123 141,-117 "/>
<polyline fill="none" stroke="black" points="147,-117 141,-117 "/>
<text text-anchor="start" x="35" y="-108.8" font-family="Times New Roman,serif" font-size="14.00"> Stubs + contracts</text>
<text text-anchor="start" x="37" y="-94.8" font-family="Times New Roman,serif" font-size="14.00">(in C#, Java </text>
<text text-anchor="start" x="108" y="-94.8" font-family="Times New Roman,serif" font-style="italic" font-size="14.00">etc.</text>
<text text-anchor="start" x="128" y="-94.8" font-family="Times New Roman,serif" font-size="14.00">) </text>
</g>
<!-- our_meta_model&#45;&gt;stubs -->
<g id="edge2" class="edge">
<title>our_meta_model&#45;&gt;stubs</title>
<path fill="none" stroke="black" d="M87,-173.9C87,-159.51 87,-145.09 87,-133.27"/>
<polygon fill="black" stroke="black" points="90.5,-133.22 87,-123.22 83.5,-133.22 90.5,-133.22"/>
<text text-anchor="middle" x="127.5" y="-144.8" font-family="Times New Roman,serif" font-size="14.00"> &#160;automatically</text>
</g>
<!-- implementation -->
<g id="node4" class="node">
<title>implementation</title>
<polygon fill="none" stroke="black" points="168,-36 0,-36 0,0 174,0 174,-30 168,-36"/>
<polyline fill="none" stroke="black" points="168,-36 168,-30 "/>
<polyline fill="none" stroke="black" points="174,-30 168,-30 "/>
<text text-anchor="start" x="8" y="-21.8" font-family="Times New Roman,serif" font-size="14.00"> Implementation + Unit tests</text>
<text text-anchor="start" x="37" y="-7.8" font-family="Times New Roman,serif" font-size="14.00">(in C#, Java </text>
<text text-anchor="start" x="108" y="-7.8" font-family="Times New Roman,serif" font-style="italic" font-size="14.00">etc.</text>
<text text-anchor="start" x="128" y="-7.8" font-family="Times New Roman,serif" font-size="14.00">) </text>
</g>
<!-- stubs&#45;&gt;implementation -->
<g id="edge3" class="edge">
<title>stubs&#45;&gt;implementation</title>
<path fill="none" stroke="black" d="M87,-86.8C87,-75.16 87,-59.55 87,-46.24"/>
<polygon fill="black" stroke="black" points="90.5,-46.18 87,-36.18 83.5,-46.18 90.5,-46.18"/>
<text text-anchor="middle" x="115.5" y="-57.8" font-family="Times New Roman,serif" font-size="14.00"> &#160;manually</text>
</g>
</g>
</svg>
