<?xml version="1.0" encoding="UTF-8" standalone="no"?>
<!DOCTYPE svg PUBLIC "-//W3C//DTD SVG 1.1//EN"
 "http://www.w3.org/Graphics/SVG/1.1/DTD/svg11.dtd">
<!-- Generated by graphviz version 2.46.0 (20210118.1747)
 -->
<!-- Title: G Pages: 1 -->
<svg width="251pt" height="432pt"
 viewBox="0.00 0.00 251.00 431.56" xmlns="http://www.w3.org/2000/svg" xmlns:xlink="http://www.w3.org/1999/xlink">
<g id="graph0" class="graph" transform="scale(1 1) rotate(0) translate(4 427.56)">
<title>G</title>
<polygon fill="white" stroke="transparent" points="-4,4 -4,-427.56 247,-427.56 247,4 -4,4"/>
<!-- base_meta_model -->
<g id="node1" class="node">
<title>base_meta_model</title>
<ellipse fill="none" stroke="black" cx="121.5" cy="-396.69" rx="81.13" ry="26.74"/>
<text text-anchor="middle" x="121.5" y="-400.49" font-family="Times New Roman,serif" font-size="14.00">Base meta&#45;model</text>
<text text-anchor="middle" x="121.5" y="-385.49" font-family="Times New Roman,serif" font-size="14.00">(RDF + SHACL)</text>
</g>
<!-- our_meta_model -->
<g id="node2" class="node">
<title>our_meta_model</title>
<polygon fill="none" stroke="black" points="243,-318.82 0,-318.82 0,-203.82 243,-203.82 243,-318.82"/>
<text text-anchor="start" x="12.5" y="-299.12" font-family="Times New Roman,serif" font-size="14.00">Our meta&#45;model:</text>
<text text-anchor="start" x="12.5" y="-278.12" font-family="Times New Roman,serif" font-size="14.00">• Data structures</text>
<text text-anchor="start" x="12.5" y="-257.12" font-family="Times New Roman,serif" font-size="14.00">• Operations</text>
<text text-anchor="start" x="12.5" y="-236.12" font-family="Times New Roman,serif" font-size="14.00">• Contracts</text>
<text text-anchor="start" x="12.5" y="-215.12" font-family="Times New Roman,serif" font-size="14.00">• De/serialization scripts (JSON, XML)</text>
</g>
<!-- base_meta_model&#45;&gt;our_meta_model -->
<g id="edge1" class="edge">
<title>base_meta_model&#45;&gt;our_meta_model</title>
<path fill="none" stroke="black" d="M121.5,-369.66C121.5,-358.01 121.5,-343.68 121.5,-329.33"/>
<polygon fill="black" stroke="black" points="125,-328.92 121.5,-318.92 118,-328.92 125,-328.92"/>
<text text-anchor="middle" x="150" y="-340.62" font-family="Times New Roman,serif" font-size="14.00"> &#160;manually</text>
</g>
<!-- stubs -->
<g id="node3" class="node">
<title>stubs</title>
<ellipse fill="none" stroke="black" cx="121.5" cy="-127.37" rx="84.71" ry="25.41"/>
<text text-anchor="start" x="69.5" y="-131.17" font-family="Times New Roman,serif" font-size="14.00"> Stubs + contracts</text>
<text text-anchor="start" x="71.5" y="-117.17" font-family="Times New Roman,serif" font-size="14.00">(in C#, Java </text>
<text text-anchor="start" x="142.5" y="-117.17" font-family="Times New Roman,serif" font-style="italic" font-size="14.00">etc.</text>
<text text-anchor="start" x="162.5" y="-117.17" font-family="Times New Roman,serif" font-size="14.00">) </text>
</g>
<!-- our_meta_model&#45;&gt;stubs -->
<g id="edge2" class="edge">
<title>our_meta_model&#45;&gt;stubs</title>
<path fill="none" stroke="black" d="M121.5,-203.6C121.5,-189.87 121.5,-175.61 121.5,-163.23"/>
<polygon fill="black" stroke="black" points="125,-162.91 121.5,-152.91 118,-162.91 125,-162.91"/>
<text text-anchor="middle" x="162" y="-174.62" font-family="Times New Roman,serif" font-size="14.00"> &#160;automatically</text>
</g>
<!-- implementation -->
<g id="node4" class="node">
<title>implementation</title>
<ellipse fill="none" stroke="black" cx="121.5" cy="-25.46" rx="82.05" ry="25.41"/>
<text text-anchor="start" x="76.5" y="-29.26" font-family="Times New Roman,serif" font-size="14.00"> Implementation</text>
<text text-anchor="start" x="71.5" y="-15.26" font-family="Times New Roman,serif" font-size="14.00">(in C#, Java </text>
<text text-anchor="start" x="142.5" y="-15.26" font-family="Times New Roman,serif" font-style="italic" font-size="14.00">etc.</text>
<text text-anchor="start" x="162.5" y="-15.26" font-family="Times New Roman,serif" font-size="14.00">) </text>
</g>
<!-- stubs&#45;&gt;implementation -->
<g id="edge3" class="edge">
<title>stubs&#45;&gt;implementation</title>
<path fill="none" stroke="black" d="M121.5,-101.67C121.5,-89.54 121.5,-74.72 121.5,-61.44"/>
<polygon fill="black" stroke="black" points="125,-61.22 121.5,-51.22 118,-61.22 125,-61.22"/>
<text text-anchor="middle" x="150" y="-72.71" font-family="Times New Roman,serif" font-size="14.00"> &#160;manually</text>
</g>
</g>
</svg>
