<?xml version="1.0" encoding="UTF-8" standalone="no"?>
<!DOCTYPE svg PUBLIC "-//W3C//DTD SVG 1.1//EN"
 "http://www.w3.org/Graphics/SVG/1.1/DTD/svg11.dtd">
<!-- Generated by graphviz version 2.46.0 (20210118.1747)
 -->
<!-- Title: G Pages: 1 -->
<svg width="699pt" height="334pt"
 viewBox="0.00 0.00 699.00 334.00" xmlns="http://www.w3.org/2000/svg" xmlns:xlink="http://www.w3.org/1999/xlink">
<g id="graph0" class="graph" transform="scale(1 1) rotate(0) translate(4 330)">
<title>G</title>
<polygon fill="white" stroke="transparent" points="-4,4 -4,-330 695,-330 695,4 -4,4"/>
<!-- meta_model -->
<g id="node1" class="node">
<title>meta_model</title>
<polygon fill="none" stroke="black" points="436.5,-326 359.5,-326 359.5,-290 442.5,-290 442.5,-320 436.5,-326"/>
<polyline fill="none" stroke="black" points="436.5,-326 436.5,-320 "/>
<polyline fill="none" stroke="black" points="442.5,-320 436.5,-320 "/>
<text text-anchor="middle" x="401" y="-304.3" font-family="Times New Roman,serif" font-size="14.00">Meta&#45;model</text>
</g>
<!-- csharp_code_generator -->
<g id="node2" class="node">
<title>csharp_code_generator</title>
<polygon fill="none" stroke="black" points="266.5,-254 145.5,-254 145.5,-218 266.5,-218 266.5,-254"/>
<text text-anchor="middle" x="206" y="-232.3" font-family="Times New Roman,serif" font-size="14.00">C# code generator</text>
</g>
<!-- meta_model&#45;&gt;csharp_code_generator -->
<g id="edge1" class="edge">
<title>meta_model&#45;&gt;csharp_code_generator</title>
<path fill="none" stroke="black" d="M359.17,-291.98C331.2,-281.94 294.03,-268.6 263.32,-257.58"/>
<polygon fill="black" stroke="black" points="264.18,-254.17 253.59,-254.08 261.82,-260.76 264.18,-254.17"/>
</g>
<!-- java_code_generator -->
<g id="node7" class="node">
<title>java_code_generator</title>
<polygon fill="none" stroke="black" points="465,-254 337,-254 337,-218 465,-218 465,-254"/>
<text text-anchor="middle" x="401" y="-232.3" font-family="Times New Roman,serif" font-size="14.00">Java code generator</text>
</g>
<!-- meta_model&#45;&gt;java_code_generator -->
<g id="edge6" class="edge">
<title>meta_model&#45;&gt;java_code_generator</title>
<path fill="none" stroke="black" d="M401,-289.7C401,-281.98 401,-272.71 401,-264.11"/>
<polygon fill="black" stroke="black" points="404.5,-264.1 401,-254.1 397.5,-264.1 404.5,-264.1"/>
</g>
<!-- dotdotdot -->
<g id="node12" class="node">
<title>dotdotdot</title>
<polygon fill="none" stroke="black" points="537,-254 483,-254 483,-218 537,-218 537,-254"/>
<text text-anchor="middle" x="510" y="-232.3" font-family="Times New Roman,serif" font-size="14.00">...</text>
</g>
<!-- meta_model&#45;&gt;dotdotdot -->
<g id="edge11" class="edge">
<title>meta_model&#45;&gt;dotdotdot</title>
<path fill="none" stroke="black" d="M427.66,-289.88C441.78,-280.81 459.31,-269.55 474.56,-259.76"/>
<polygon fill="black" stroke="black" points="476.71,-262.54 483.23,-254.19 472.93,-256.65 476.71,-262.54"/>
</g>
<!-- csharp_stubs -->
<g id="node3" class="node">
<title>csharp_stubs</title>
<polygon fill="none" stroke="black" points="198,-182 0,-182 0,-144 204,-144 204,-176 198,-182"/>
<polyline fill="none" stroke="black" points="198,-182 198,-176 "/>
<polyline fill="none" stroke="black" points="204,-176 198,-176 "/>
<text text-anchor="start" x="66.5" y="-166.8" font-family="Times New Roman,serif" font-size="14.00"> Stubs in C#</text>
<text text-anchor="start" x="8" y="-151.8" font-family="Times New Roman,serif" font-size="14.00">with C#&#45;specific include markers </text>
</g>
<!-- csharp_code_generator&#45;&gt;csharp_stubs -->
<g id="edge2" class="edge">
<title>csharp_code_generator&#45;&gt;csharp_stubs</title>
<path fill="none" stroke="black" d="M181.09,-217.99C167.83,-208.94 151.3,-197.66 136.8,-187.75"/>
<polygon fill="black" stroke="black" points="138.76,-184.86 128.53,-182.11 134.81,-190.64 138.76,-184.86"/>
</g>
<!-- csharp_filler_script -->
<g id="node5" class="node">
<title>csharp_filler_script</title>
<polygon fill="none" stroke="black" points="229,-108 149,-108 149,-72 229,-72 229,-108"/>
<text text-anchor="middle" x="189" y="-86.3" font-family="Times New Roman,serif" font-size="14.00">Filler script</text>
</g>
<!-- csharp_stubs&#45;&gt;csharp_filler_script -->
<g id="edge3" class="edge">
<title>csharp_stubs&#45;&gt;csharp_filler_script</title>
<path fill="none" stroke="black" d="M124.4,-143.72C135.37,-134.77 148.69,-123.9 160.38,-114.36"/>
<polygon fill="black" stroke="black" points="162.63,-117.04 168.16,-108 158.2,-111.61 162.63,-117.04"/>
</g>
<!-- csharp_snippets -->
<g id="node4" class="node">
<title>csharp_snippets</title>
<polygon fill="none" stroke="black" points="323.5,-181 222.5,-181 222.5,-145 329.5,-145 329.5,-175 323.5,-181"/>
<polyline fill="none" stroke="black" points="323.5,-181 323.5,-175 "/>
<polyline fill="none" stroke="black" points="329.5,-175 323.5,-175 "/>
<text text-anchor="start" x="230.5" y="-159.3" font-family="Times New Roman,serif" font-size="14.00"> Snippets in C# </text>
</g>
<!-- csharp_snippets&#45;&gt;csharp_filler_script -->
<g id="edge4" class="edge">
<title>csharp_snippets&#45;&gt;csharp_filler_script</title>
<path fill="none" stroke="black" d="M254.94,-144.81C243.83,-135.74 230.02,-124.48 217.92,-114.6"/>
<polygon fill="black" stroke="black" points="219.83,-111.64 209.87,-108.03 215.4,-117.06 219.83,-111.64"/>
</g>
<!-- csharp_implementation -->
<g id="node6" class="node">
<title>csharp_implementation</title>
<polygon fill="none" stroke="black" points="244,-36 128,-36 128,0 250,0 250,-30 244,-36"/>
<polyline fill="none" stroke="black" points="244,-36 244,-30 "/>
<polyline fill="none" stroke="black" points="250,-30 244,-30 "/>
<text text-anchor="middle" x="189" y="-14.3" font-family="Times New Roman,serif" font-size="14.00">C# implementation</text>
</g>
<!-- csharp_filler_script&#45;&gt;csharp_implementation -->
<g id="edge5" class="edge">
<title>csharp_filler_script&#45;&gt;csharp_implementation</title>
<path fill="none" stroke="black" d="M189,-71.7C189,-63.98 189,-54.71 189,-46.11"/>
<polygon fill="black" stroke="black" points="192.5,-46.1 189,-36.1 185.5,-46.1 192.5,-46.1"/>
</g>
<!-- java_stubs -->
<g id="node8" class="node">
<title>java_stubs</title>
<polygon fill="none" stroke="black" points="552.5,-182 347.5,-182 347.5,-144 558.5,-144 558.5,-176 552.5,-182"/>
<polyline fill="none" stroke="black" points="552.5,-182 552.5,-176 "/>
<polyline fill="none" stroke="black" points="558.5,-176 552.5,-176 "/>
<text text-anchor="start" x="414" y="-166.8" font-family="Times New Roman,serif" font-size="14.00"> Stubs in Java</text>
<text text-anchor="start" x="355.5" y="-151.8" font-family="Times New Roman,serif" font-size="14.00">with Java&#45;specific include markers </text>
</g>
<!-- java_code_generator&#45;&gt;java_stubs -->
<g id="edge7" class="edge">
<title>java_code_generator&#45;&gt;java_stubs</title>
<path fill="none" stroke="black" d="M413.59,-217.81C419.66,-209.52 427.08,-199.39 433.84,-190.16"/>
<polygon fill="black" stroke="black" points="436.72,-192.16 439.8,-182.02 431.07,-188.02 436.72,-192.16"/>
</g>
<!-- java_filler_script -->
<g id="node10" class="node">
<title>java_filler_script</title>
<polygon fill="none" stroke="black" points="583,-108 503,-108 503,-72 583,-72 583,-108"/>
<text text-anchor="middle" x="543" y="-86.3" font-family="Times New Roman,serif" font-size="14.00">Filler script</text>
</g>
<!-- java_stubs&#45;&gt;java_filler_script -->
<g id="edge8" class="edge">
<title>java_stubs&#45;&gt;java_filler_script</title>
<path fill="none" stroke="black" d="M476.18,-143.72C487.52,-134.77 501.3,-123.9 513.39,-114.36"/>
<polygon fill="black" stroke="black" points="515.76,-116.94 521.45,-108 511.43,-111.45 515.76,-116.94"/>
</g>
<!-- java_snippets -->
<g id="node9" class="node">
<title>java_snippets</title>
<polygon fill="none" stroke="black" points="685,-181 577,-181 577,-145 691,-145 691,-175 685,-181"/>
<polyline fill="none" stroke="black" points="685,-181 685,-175 "/>
<polyline fill="none" stroke="black" points="691,-175 685,-175 "/>
<text text-anchor="start" x="585" y="-159.3" font-family="Times New Roman,serif" font-size="14.00"> Snippets in Java </text>
</g>
<!-- java_snippets&#45;&gt;java_filler_script -->
<g id="edge9" class="edge">
<title>java_snippets&#45;&gt;java_filler_script</title>
<path fill="none" stroke="black" d="M611.97,-144.81C600.23,-135.66 585.63,-124.26 572.88,-114.32"/>
<polygon fill="black" stroke="black" points="574.86,-111.42 564.83,-108.03 570.56,-116.94 574.86,-111.42"/>
</g>
<!-- java_implementation -->
<g id="node11" class="node">
<title>java_implementation</title>
<polygon fill="none" stroke="black" points="601,-36 479,-36 479,0 607,0 607,-30 601,-36"/>
<polyline fill="none" stroke="black" points="601,-36 601,-30 "/>
<polyline fill="none" stroke="black" points="607,-30 601,-30 "/>
<text text-anchor="middle" x="543" y="-14.3" font-family="Times New Roman,serif" font-size="14.00">Java implementation</text>
</g>
<!-- java_filler_script&#45;&gt;java_implementation -->
<g id="edge10" class="edge">
<title>java_filler_script&#45;&gt;java_implementation</title>
<path fill="none" stroke="black" d="M543,-71.7C543,-63.98 543,-54.71 543,-46.11"/>
<polygon fill="black" stroke="black" points="546.5,-46.1 543,-36.1 539.5,-46.1 546.5,-46.1"/>
</g>
</g>
</svg>
