<?xml version="1.0" encoding="UTF-8" standalone="no"?>
<!DOCTYPE svg PUBLIC "-//W3C//DTD SVG 1.1//EN"
 "http://www.w3.org/Graphics/SVG/1.1/DTD/svg11.dtd">
<!-- Generated by graphviz version 2.46.0 (20210118.1747)
 -->
<!-- Title: G Pages: 1 -->
<svg width="705pt" height="220pt"
 viewBox="0.00 0.00 705.00 220.00" xmlns="http://www.w3.org/2000/svg" xmlns:xlink="http://www.w3.org/1999/xlink">
<g id="graph0" class="graph" transform="scale(1 1) rotate(0) translate(4 216)">
<title>G</title>
<polygon fill="white" stroke="transparent" points="-4,4 -4,-216 701,-216 701,4 -4,4"/>
<!-- aasx_db -->
<g id="node1" class="node">
<title>aasx_db</title>
<polygon fill="none" stroke="black" points="164,-124 103,-124 103,-88 164,-88 164,-124"/>
<text text-anchor="middle" x="133.5" y="-102.3" font-family="Times New Roman,serif" font-size="14.00">aasx&#45;db</text>
</g>
<!-- aas_core -->
<g id="node5" class="node">
<title>aas_core</title>
<polygon fill="none" stroke="black" points="304.5,-36 240.5,-36 240.5,0 304.5,0 304.5,-36"/>
<text text-anchor="middle" x="272.5" y="-14.3" font-family="Times New Roman,serif" font-size="14.00">aas&#45;core</text>
</g>
<!-- aasx_db&#45;&gt;aas_core -->
<g id="edge1" class="edge">
<title>aasx_db&#45;&gt;aas_core</title>
<path fill="none" stroke="black" d="M130.59,-87.95C129.72,-77.02 130.65,-63.2 138.5,-54 150.4,-40.06 195.65,-30.31 230.3,-24.7"/>
<polygon fill="black" stroke="black" points="230.87,-28.16 240.22,-23.16 229.8,-21.24 230.87,-28.16"/>
<text text-anchor="middle" x="162.5" y="-57.8" font-family="Times New Roman,serif" font-size="14.00">interface</text>
</g>
<!-- aas_package -->
<g id="node2" class="node">
<title>aas_package</title>
<polygon fill="none" stroke="black" points="85,-124 0,-124 0,-88 85,-88 85,-124"/>
<text text-anchor="middle" x="42.5" y="-102.3" font-family="Times New Roman,serif" font-size="14.00">aas&#45;package</text>
</g>
<!-- aas_package&#45;&gt;aas_core -->
<g id="edge2" class="edge">
<title>aas_package&#45;&gt;aas_core</title>
<path fill="none" stroke="black" d="M55.62,-87.67C65.16,-76.32 79.06,-62.13 94.5,-54 137.29,-31.46 192.79,-23.36 230.36,-20.5"/>
<polygon fill="black" stroke="black" points="230.71,-23.98 240.45,-19.82 230.24,-17 230.71,-23.98"/>
<text text-anchor="middle" x="111.5" y="-57.8" font-family="Times New Roman,serif" font-size="14.00">data.*</text>
</g>
<!-- aasx_server -->
<g id="node3" class="node">
<title>aasx_server</title>
<polygon fill="none" stroke="black" points="198.5,-212 118.5,-212 118.5,-176 198.5,-176 198.5,-212"/>
<text text-anchor="middle" x="158.5" y="-190.3" font-family="Times New Roman,serif" font-size="14.00">aasx&#45;server</text>
</g>
<!-- aasx_server&#45;&gt;aasx_db -->
<g id="edge4" class="edge">
<title>aasx_server&#45;&gt;aasx_db</title>
<path fill="none" stroke="black" d="M132.1,-175.65C126.6,-170.66 121.55,-164.72 118.5,-158 115.03,-150.35 115.92,-141.7 118.51,-133.72"/>
<polygon fill="black" stroke="black" points="121.77,-135.01 122.34,-124.43 115.29,-132.34 121.77,-135.01"/>
<text text-anchor="middle" x="152.5" y="-146.8" font-family="Times New Roman,serif" font-size="14.00">second step</text>
</g>
<!-- aasx_server&#45;&gt;aas_core -->
<g id="edge3" class="edge">
<title>aasx_server&#45;&gt;aas_core</title>
<path fill="none" stroke="black" d="M174.36,-175.71C178.73,-170.32 183.18,-164.17 186.5,-158 202.23,-128.8 192.72,-115.61 209.5,-87 218.94,-70.9 232.75,-55.44 245.03,-43.34"/>
<polygon fill="black" stroke="black" points="247.63,-45.7 252.44,-36.26 242.79,-40.64 247.63,-45.7"/>
<text text-anchor="middle" x="234" y="-102.3" font-family="Times New Roman,serif" font-size="14.00">first step</text>
</g>
<!-- aasx_package_explorer -->
<g id="node4" class="node">
<title>aasx_package_explorer</title>
<polygon fill="none" stroke="black" points="423.5,-124 267.5,-124 267.5,-88 423.5,-88 423.5,-124"/>
<text text-anchor="middle" x="345.5" y="-102.3" font-family="Times New Roman,serif" font-size="14.00">AASX Package Explorer</text>
</g>
<!-- aasx_package_explorer&#45;&gt;aas_core -->
<g id="edge6" class="edge">
<title>aasx_package_explorer&#45;&gt;aas_core</title>
<path fill="none" stroke="black" d="M330.73,-87.6C320.07,-75.04 305.53,-57.91 293.64,-43.91"/>
<polygon fill="black" stroke="black" points="296.14,-41.44 287,-36.08 290.8,-45.97 296.14,-41.44"/>
<text text-anchor="middle" x="345.5" y="-57.8" font-family="Times New Roman,serif" font-size="14.00"> data model</text>
</g>
<!-- aasx_to_grpc -->
<g id="node6" class="node">
<title>aasx_to_grpc</title>
<polygon fill="none" stroke="black" points="551.5,-125 441.5,-125 441.5,-87 551.5,-87 551.5,-125"/>
<text text-anchor="middle" x="496.5" y="-109.8" font-family="Times New Roman,serif" font-size="14.00">aasx&#45;to&#45;grpc</text>
<text text-anchor="middle" x="496.5" y="-94.8" font-family="Times New Roman,serif" font-size="14.00">(and other tools)</text>
</g>
<!-- aasx_to_grpc&#45;&gt;aas_core -->
<g id="edge5" class="edge">
<title>aasx_to_grpc&#45;&gt;aas_core</title>
<path fill="none" stroke="black" d="M458.95,-86.92C436.93,-76.64 408.43,-63.89 382.5,-54 360.29,-45.53 335.05,-37.4 314.36,-31.11"/>
<polygon fill="black" stroke="black" points="315.18,-27.7 304.6,-28.17 313.17,-34.4 315.18,-27.7"/>
<text text-anchor="middle" x="449.5" y="-57.8" font-family="Times New Roman,serif" font-size="14.00"> data model</text>
</g>
<!-- embedded_software -->
<g id="node7" class="node">
<title>embedded_software</title>
<polygon fill="none" stroke="black" points="697,-124 570,-124 570,-88 697,-88 697,-124"/>
<text text-anchor="middle" x="633.5" y="-102.3" font-family="Times New Roman,serif" font-size="14.00">embedded software</text>
</g>
<!-- embedded_software&#45;&gt;aas_core -->
<g id="edge7" class="edge">
<title>embedded_software&#45;&gt;aas_core</title>
<path fill="none" stroke="black" d="M590.68,-87.95C561.66,-76.95 522.24,-63.05 486.5,-54 427.71,-39.11 358.18,-29.1 314.69,-23.73"/>
<polygon fill="black" stroke="black" points="315.11,-20.25 304.76,-22.52 314.26,-27.2 315.11,-20.25"/>
<text text-anchor="middle" x="568.5" y="-57.8" font-family="Times New Roman,serif" font-size="14.00"> data model</text>
</g>
</g>
</svg>
