<?xml version="1.0" encoding="UTF-8" standalone="no"?>
<!DOCTYPE svg PUBLIC "-//W3C//DTD SVG 1.1//EN"
 "http://www.w3.org/Graphics/SVG/1.1/DTD/svg11.dtd">
<!-- Generated by graphviz version 2.46.0 (20210118.1747)
 -->
<!-- Title: G Pages: 1 -->
<svg width="610pt" height="220pt"
 viewBox="0.00 0.00 610.00 220.00" xmlns="http://www.w3.org/2000/svg" xmlns:xlink="http://www.w3.org/1999/xlink">
<g id="graph0" class="graph" transform="scale(1 1) rotate(0) translate(4 216)">
<title>G</title>
<polygon fill="white" stroke="transparent" points="-4,4 -4,-216 606,-216 606,4 -4,4"/>
<!-- aasx_db -->
<g id="node1" class="node">
<title>aasx_db</title>
<polygon fill="none" stroke="black" points="61,-124 0,-124 0,-88 61,-88 61,-124"/>
<text text-anchor="middle" x="30.5" y="-102.3" font-family="Times New Roman,serif" font-size="14.00">aasx&#45;db</text>
</g>
<!-- aasx_core -->
<g id="node4" class="node">
<title>aasx_core</title>
<polygon fill="none" stroke="black" points="286,-36 215,-36 215,0 286,0 286,-36"/>
<text text-anchor="middle" x="250.5" y="-14.3" font-family="Times New Roman,serif" font-size="14.00">aasx&#45;core</text>
</g>
<!-- aasx_db&#45;&gt;aasx_core -->
<g id="edge1" class="edge">
<title>aasx_db&#45;&gt;aasx_core</title>
<path fill="none" stroke="black" d="M30.33,-87.93C31.17,-76.7 34.23,-62.54 43.5,-54 66.37,-32.93 150.71,-24.4 204.42,-21.05"/>
<polygon fill="black" stroke="black" points="204.95,-24.53 214.73,-20.45 204.54,-17.54 204.95,-24.53"/>
<text text-anchor="middle" x="67.5" y="-57.8" font-family="Times New Roman,serif" font-size="14.00">interface</text>
</g>
<!-- aasx_server -->
<g id="node2" class="node">
<title>aasx_server</title>
<polygon fill="none" stroke="black" points="103.5,-212 23.5,-212 23.5,-176 103.5,-176 103.5,-212"/>
<text text-anchor="middle" x="63.5" y="-190.3" font-family="Times New Roman,serif" font-size="14.00">aasx&#45;server</text>
</g>
<!-- aasx_server&#45;&gt;aasx_db -->
<g id="edge3" class="edge">
<title>aasx_server&#45;&gt;aasx_db</title>
<path fill="none" stroke="black" d="M37.1,-175.65C31.6,-170.66 26.55,-164.72 23.5,-158 20.16,-150.64 20.05,-142.12 21.31,-134.18"/>
<polygon fill="black" stroke="black" points="24.77,-134.74 23.59,-124.21 17.95,-133.18 24.77,-134.74"/>
<text text-anchor="middle" x="57.5" y="-146.8" font-family="Times New Roman,serif" font-size="14.00">second step</text>
</g>
<!-- aasx_server&#45;&gt;aasx_core -->
<g id="edge2" class="edge">
<title>aasx_server&#45;&gt;aasx_core</title>
<path fill="none" stroke="black" d="M79.36,-175.71C83.73,-170.32 88.18,-164.17 91.5,-158 107.23,-128.8 92.87,-112.15 114.5,-87 138.16,-59.49 175.62,-41.91 205.24,-31.54"/>
<polygon fill="black" stroke="black" points="206.58,-34.78 214.96,-28.29 204.36,-28.14 206.58,-34.78"/>
<text text-anchor="middle" x="139" y="-102.3" font-family="Times New Roman,serif" font-size="14.00">first step</text>
</g>
<!-- aasx_package_explorer -->
<g id="node3" class="node">
<title>aasx_package_explorer</title>
<polygon fill="none" stroke="black" points="328.5,-124 172.5,-124 172.5,-88 328.5,-88 328.5,-124"/>
<text text-anchor="middle" x="250.5" y="-102.3" font-family="Times New Roman,serif" font-size="14.00">AASX Package Explorer</text>
</g>
<!-- aasx_package_explorer&#45;&gt;aasx_core -->
<g id="edge5" class="edge">
<title>aasx_package_explorer&#45;&gt;aasx_core</title>
<path fill="none" stroke="black" d="M250.5,-87.6C250.5,-75.75 250.5,-59.82 250.5,-46.29"/>
<polygon fill="black" stroke="black" points="254,-46.08 250.5,-36.08 247,-46.08 254,-46.08"/>
<text text-anchor="middle" x="283.5" y="-57.8" font-family="Times New Roman,serif" font-size="14.00"> data model</text>
</g>
<!-- aasx_to_grpc -->
<g id="node5" class="node">
<title>aasx_to_grpc</title>
<polygon fill="none" stroke="black" points="456.5,-125 346.5,-125 346.5,-87 456.5,-87 456.5,-125"/>
<text text-anchor="middle" x="401.5" y="-109.8" font-family="Times New Roman,serif" font-size="14.00">aasx&#45;to&#45;grpc</text>
<text text-anchor="middle" x="401.5" y="-94.8" font-family="Times New Roman,serif" font-size="14.00">(and other tools)</text>
</g>
<!-- aasx_to_grpc&#45;&gt;aasx_core -->
<g id="edge4" class="edge">
<title>aasx_to_grpc&#45;&gt;aasx_core</title>
<path fill="none" stroke="black" d="M374.17,-86.85C358.65,-76.79 338.75,-64.27 320.5,-54 312.41,-49.45 303.66,-44.83 295.17,-40.51"/>
<polygon fill="black" stroke="black" points="296.61,-37.32 286.11,-35.96 293.47,-43.58 296.61,-37.32"/>
<text text-anchor="middle" x="377.5" y="-57.8" font-family="Times New Roman,serif" font-size="14.00"> data model</text>
</g>
<!-- embedded_software -->
<g id="node6" class="node">
<title>embedded_software</title>
<polygon fill="none" stroke="black" points="602,-124 475,-124 475,-88 602,-88 602,-124"/>
<text text-anchor="middle" x="538.5" y="-102.3" font-family="Times New Roman,serif" font-size="14.00">embedded software</text>
</g>
<!-- embedded_software&#45;&gt;aasx_core -->
<g id="edge6" class="edge">
<title>embedded_software&#45;&gt;aasx_core</title>
<path fill="none" stroke="black" d="M501.97,-87.94C477.6,-77.07 444.63,-63.33 414.5,-54 375.18,-41.83 329.27,-32.43 296.05,-26.45"/>
<polygon fill="black" stroke="black" points="296.62,-22.99 286.16,-24.7 295.4,-29.89 296.62,-22.99"/>
<text text-anchor="middle" x="488.5" y="-57.8" font-family="Times New Roman,serif" font-size="14.00"> data model</text>
</g>
</g>
</svg>
