<?xml version="1.0" encoding="UTF-8" standalone="no"?>
<!DOCTYPE svg PUBLIC "-//W3C//DTD SVG 1.1//EN"
 "http://www.w3.org/Graphics/SVG/1.1/DTD/svg11.dtd">
<!-- Generated by graphviz version 2.46.0 (20210118.1747)
 -->
<!-- Title: G Pages: 1 -->
<svg width="442pt" height="453pt"
 viewBox="0.00 0.00 441.50 453.00" xmlns="http://www.w3.org/2000/svg" xmlns:xlink="http://www.w3.org/1999/xlink">
<g id="graph0" class="graph" transform="scale(1 1) rotate(0) translate(4 449)">
<title>G</title>
<polygon fill="white" stroke="transparent" points="-4,4 -4,-449 437.5,-449 437.5,4 -4,4"/>
<!-- json_schema -->
<g id="node1" class="node">
<title>json_schema</title>
<polygon fill="none" stroke="black" points="292.5,-445 137.5,-445 137.5,-409 298.5,-409 298.5,-439 292.5,-445"/>
<polyline fill="none" stroke="black" points="292.5,-445 292.5,-439 "/>
<polyline fill="none" stroke="black" points="298.5,-439 292.5,-439 "/>
<text text-anchor="start" x="145.5" y="-423.3" font-family="Times New Roman,serif" font-size="14.00"> &quot;Official&quot; JSON schema </text>
</g>
<!-- bootstrapping_script -->
<g id="node2" class="node">
<title>bootstrapping_script</title>
<polygon fill="none" stroke="black" points="283.5,-372 152.5,-372 152.5,-336 283.5,-336 283.5,-372"/>
<text text-anchor="middle" x="218" y="-350.3" font-family="Times New Roman,serif" font-size="14.00">Bootstrapping script</text>
</g>
<!-- json_schema&#45;&gt;bootstrapping_script -->
<g id="edge1" class="edge">
<title>json_schema&#45;&gt;bootstrapping_script</title>
<path fill="none" stroke="black" d="M218,-408.81C218,-400.79 218,-391.05 218,-382.07"/>
<polygon fill="black" stroke="black" points="221.5,-382.03 218,-372.03 214.5,-382.03 221.5,-382.03"/>
</g>
<!-- initial_deserialization_script -->
<g id="node3" class="node">
<title>initial_deserialization_script</title>
<polygon fill="none" stroke="black" points="207,-285 49,-285 49,-249 213,-249 213,-279 207,-285"/>
<polyline fill="none" stroke="black" points="207,-285 207,-279 "/>
<polyline fill="none" stroke="black" points="213,-279 207,-279 "/>
<text text-anchor="middle" x="131" y="-263.3" font-family="Times New Roman,serif" font-size="14.00">Initial deserialization script</text>
</g>
<!-- bootstrapping_script&#45;&gt;initial_deserialization_script -->
<g id="edge2" class="edge">
<title>bootstrapping_script&#45;&gt;initial_deserialization_script</title>
<path fill="none" stroke="black" d="M200.39,-335.8C187.66,-323.36 170.27,-306.36 156.08,-292.5"/>
<polygon fill="black" stroke="black" points="158.18,-289.66 148.58,-285.18 153.29,-294.67 158.18,-289.66"/>
<text text-anchor="middle" x="220.5" y="-306.8" font-family="Times New Roman,serif" font-size="14.00"> &#160;automatically</text>
</g>
<!-- initial_serialization_script -->
<g id="node4" class="node">
<title>initial_serialization_script</title>
<polygon fill="none" stroke="black" points="377,-285 233,-285 233,-249 383,-249 383,-279 377,-285"/>
<polyline fill="none" stroke="black" points="377,-285 377,-279 "/>
<polyline fill="none" stroke="black" points="383,-279 377,-279 "/>
<text text-anchor="middle" x="308" y="-263.3" font-family="Times New Roman,serif" font-size="14.00">Initial serialization script</text>
</g>
<!-- bootstrapping_script&#45;&gt;initial_serialization_script -->
<g id="edge3" class="edge">
<title>bootstrapping_script&#45;&gt;initial_serialization_script</title>
<path fill="none" stroke="black" d="M243.21,-335.81C250.5,-330.42 258.3,-324.24 265,-318 273.17,-310.39 281.35,-301.32 288.35,-293.01"/>
<polygon fill="black" stroke="black" points="291.26,-294.98 294.92,-285.04 285.86,-290.53 291.26,-294.98"/>
<text text-anchor="middle" x="318.5" y="-306.8" font-family="Times New Roman,serif" font-size="14.00"> &#160;automatically</text>
</g>
<!-- refined_deserialization_script -->
<g id="node5" class="node">
<title>refined_deserialization_script</title>
<polygon fill="none" stroke="black" points="203.5,-198 32.5,-198 32.5,-162 209.5,-162 209.5,-192 203.5,-198"/>
<polyline fill="none" stroke="black" points="203.5,-198 203.5,-192 "/>
<polyline fill="none" stroke="black" points="209.5,-192 203.5,-192 "/>
<text text-anchor="middle" x="121" y="-176.3" font-family="Times New Roman,serif" font-size="14.00">Refined deserialization script</text>
</g>
<!-- initial_deserialization_script&#45;&gt;refined_deserialization_script -->
<g id="edge4" class="edge">
<title>initial_deserialization_script&#45;&gt;refined_deserialization_script</title>
<path fill="none" stroke="black" d="M128.98,-248.8C127.61,-237.16 125.77,-221.55 124.2,-208.24"/>
<polygon fill="black" stroke="black" points="127.67,-207.7 123.02,-198.18 120.71,-208.52 127.67,-207.7"/>
<text text-anchor="middle" x="155.5" y="-219.8" font-family="Times New Roman,serif" font-size="14.00"> &#160;manually</text>
</g>
<!-- refined_serialization_script -->
<g id="node6" class="node">
<title>refined_serialization_script</title>
<polygon fill="none" stroke="black" points="386,-198 228,-198 228,-162 392,-162 392,-192 386,-198"/>
<polyline fill="none" stroke="black" points="386,-198 386,-192 "/>
<polyline fill="none" stroke="black" points="392,-192 386,-192 "/>
<text text-anchor="middle" x="310" y="-176.3" font-family="Times New Roman,serif" font-size="14.00">Refined serialization script</text>
</g>
<!-- initial_serialization_script&#45;&gt;refined_serialization_script -->
<g id="edge5" class="edge">
<title>initial_serialization_script&#45;&gt;refined_serialization_script</title>
<path fill="none" stroke="black" d="M308.4,-248.8C308.68,-237.16 309.05,-221.55 309.36,-208.24"/>
<polygon fill="black" stroke="black" points="312.86,-208.26 309.6,-198.18 305.86,-208.09 312.86,-208.26"/>
<text text-anchor="middle" x="337.5" y="-219.8" font-family="Times New Roman,serif" font-size="14.00"> &#160;manually</text>
</g>
<!-- csharp_code_generator -->
<g id="node7" class="node">
<title>csharp_code_generator</title>
<polygon fill="none" stroke="black" points="181.5,-125 60.5,-125 60.5,-89 181.5,-89 181.5,-125"/>
<text text-anchor="middle" x="121" y="-103.3" font-family="Times New Roman,serif" font-size="14.00">C# code generator</text>
</g>
<!-- refined_deserialization_script&#45;&gt;csharp_code_generator -->
<g id="edge6" class="edge">
<title>refined_deserialization_script&#45;&gt;csharp_code_generator</title>
<path fill="none" stroke="black" d="M121,-161.81C121,-153.79 121,-144.05 121,-135.07"/>
<polygon fill="black" stroke="black" points="124.5,-135.03 121,-125.03 117.5,-135.03 124.5,-135.03"/>
</g>
<!-- java_code_generator -->
<g id="node9" class="node">
<title>java_code_generator</title>
<polygon fill="none" stroke="black" points="374,-125 246,-125 246,-89 374,-89 374,-125"/>
<text text-anchor="middle" x="310" y="-103.3" font-family="Times New Roman,serif" font-size="14.00">Java code generator</text>
</g>
<!-- refined_deserialization_script&#45;&gt;java_code_generator -->
<g id="edge8" class="edge">
<title>refined_deserialization_script&#45;&gt;java_code_generator</title>
<path fill="none" stroke="black" d="M166.27,-161.99C192.84,-152.01 226.62,-139.32 254.75,-128.76"/>
<polygon fill="black" stroke="black" points="256.31,-131.91 264.44,-125.11 253.85,-125.35 256.31,-131.91"/>
</g>
<!-- refined_serialization_script&#45;&gt;csharp_code_generator -->
<g id="edge7" class="edge">
<title>refined_serialization_script&#45;&gt;csharp_code_generator</title>
<path fill="none" stroke="black" d="M264.73,-161.99C238.16,-152.01 204.38,-139.32 176.25,-128.76"/>
<polygon fill="black" stroke="black" points="177.15,-125.35 166.56,-125.11 174.69,-131.91 177.15,-125.35"/>
</g>
<!-- refined_serialization_script&#45;&gt;java_code_generator -->
<g id="edge9" class="edge">
<title>refined_serialization_script&#45;&gt;java_code_generator</title>
<path fill="none" stroke="black" d="M310,-161.81C310,-153.79 310,-144.05 310,-135.07"/>
<polygon fill="black" stroke="black" points="313.5,-135.03 310,-125.03 306.5,-135.03 313.5,-135.03"/>
</g>
<!-- csharp_stubs -->
<g id="node8" class="node">
<title>csharp_stubs</title>
<polygon fill="none" stroke="black" points="198,-38 0,-38 0,0 204,0 204,-32 198,-38"/>
<polyline fill="none" stroke="black" points="198,-38 198,-32 "/>
<polyline fill="none" stroke="black" points="204,-32 198,-32 "/>
<text text-anchor="start" x="66.5" y="-22.8" font-family="Times New Roman,serif" font-size="14.00"> Stubs in C#</text>
<text text-anchor="start" x="8" y="-7.8" font-family="Times New Roman,serif" font-size="14.00">with C#&#45;specific include markers </text>
</g>
<!-- csharp_code_generator&#45;&gt;csharp_stubs -->
<g id="edge10" class="edge">
<title>csharp_code_generator&#45;&gt;csharp_stubs</title>
<path fill="none" stroke="black" d="M117.16,-88.6C114.61,-77.06 111.2,-61.65 108.26,-48.36"/>
<polygon fill="black" stroke="black" points="111.61,-47.28 106.04,-38.27 104.78,-48.79 111.61,-47.28"/>
<text text-anchor="middle" x="154.5" y="-59.8" font-family="Times New Roman,serif" font-size="14.00"> &#160;automatically</text>
</g>
<!-- java_stubs -->
<g id="node10" class="node">
<title>java_stubs</title>
<polygon fill="none" stroke="black" points="427.5,-38 222.5,-38 222.5,0 433.5,0 433.5,-32 427.5,-38"/>
<polyline fill="none" stroke="black" points="427.5,-38 427.5,-32 "/>
<polyline fill="none" stroke="black" points="433.5,-32 427.5,-32 "/>
<text text-anchor="start" x="289" y="-22.8" font-family="Times New Roman,serif" font-size="14.00"> Stubs in Java</text>
<text text-anchor="start" x="230.5" y="-7.8" font-family="Times New Roman,serif" font-size="14.00">with Java&#45;specific include markers </text>
</g>
<!-- java_code_generator&#45;&gt;java_stubs -->
<g id="edge11" class="edge">
<title>java_code_generator&#45;&gt;java_stubs</title>
<path fill="none" stroke="black" d="M313.64,-88.6C316.06,-77.06 319.28,-61.65 322.06,-48.36"/>
<polygon fill="black" stroke="black" points="325.55,-48.77 324.18,-38.27 318.7,-47.34 325.55,-48.77"/>
<text text-anchor="middle" x="360.5" y="-59.8" font-family="Times New Roman,serif" font-size="14.00"> &#160;automatically</text>
</g>
</g>
</svg>
